<mxfile host="Electron" agent="Mozilla/5.0 (Windows NT 10.0; Win64; x64) AppleWebKit/537.36 (KHTML, like Gecko) draw.io/26.0.9 Chrome/128.0.6613.186 Electron/32.2.5 Safari/537.36" version="26.0.9">
  <diagram name="Page-1" id="tt_DKh5EpqICpMbPOaRo">
    <mxGraphModel dx="1979" dy="1857" grid="1" gridSize="10" guides="1" tooltips="1" connect="1" arrows="1" fold="1" page="1" pageScale="1" pageWidth="827" pageHeight="1169" math="0" shadow="0">
      <root>
        <mxCell id="0" />
        <mxCell id="1" parent="0" />
        <mxCell id="UBOe81G5PL-eWpIbxyMx-1" value="crm_cust_info" style="swimlane;fontStyle=0;childLayout=stackLayout;horizontal=1;startSize=30;horizontalStack=0;resizeParent=1;resizeParentMax=0;resizeLast=0;collapsible=1;marginBottom=0;whiteSpace=wrap;html=1;fillColor=#dae8fc;strokeColor=#6c8ebf;rounded=1;fontSize=26;" parent="1" vertex="1">
          <mxGeometry x="450" y="400" width="190" height="90" as="geometry" />
        </mxCell>
        <mxCell id="UBOe81G5PL-eWpIbxyMx-2" value="&lt;span style=&quot;font-size: 20px;&quot;&gt;cst_id&lt;/span&gt;" style="text;strokeColor=none;fillColor=none;align=left;verticalAlign=middle;spacingLeft=4;spacingRight=4;overflow=hidden;points=[[0,0.5],[1,0.5]];portConstraint=eastwest;rotatable=0;whiteSpace=wrap;html=1;" parent="UBOe81G5PL-eWpIbxyMx-1" vertex="1">
          <mxGeometry y="30" width="190" height="30" as="geometry" />
        </mxCell>
        <mxCell id="UBOe81G5PL-eWpIbxyMx-22" value="&lt;span style=&quot;font-size: 20px;&quot;&gt;cst_key&lt;/span&gt;" style="text;strokeColor=none;fillColor=none;align=left;verticalAlign=middle;spacingLeft=4;spacingRight=4;overflow=hidden;points=[[0,0.5],[1,0.5]];portConstraint=eastwest;rotatable=0;whiteSpace=wrap;html=1;" parent="UBOe81G5PL-eWpIbxyMx-1" vertex="1">
          <mxGeometry y="60" width="190" height="30" as="geometry" />
        </mxCell>
        <mxCell id="UBOe81G5PL-eWpIbxyMx-5" value="Customer infromations" style="text;html=1;align=center;verticalAlign=middle;whiteSpace=wrap;rounded=0;" parent="1" vertex="1">
          <mxGeometry x="480" y="370" width="130" height="30" as="geometry" />
        </mxCell>
        <mxCell id="UBOe81G5PL-eWpIbxyMx-8" value="crm_prd&lt;span style=&quot;background-color: transparent; color: light-dark(rgb(0, 0, 0), rgb(255, 255, 255));&quot;&gt;_info&lt;/span&gt;" style="swimlane;fontStyle=0;childLayout=stackLayout;horizontal=1;startSize=30;horizontalStack=0;resizeParent=1;resizeParentMax=0;resizeLast=0;collapsible=1;marginBottom=0;whiteSpace=wrap;html=1;fillColor=#dae8fc;strokeColor=#6c8ebf;rounded=1;fontSize=26;" parent="1" vertex="1">
          <mxGeometry x="450" y="140" width="190" height="60" as="geometry" />
        </mxCell>
        <mxCell id="UBOe81G5PL-eWpIbxyMx-9" value="&lt;span style=&quot;font-size: 20px;&quot;&gt;prd_key&lt;/span&gt;" style="text;strokeColor=none;fillColor=none;align=left;verticalAlign=middle;spacingLeft=4;spacingRight=4;overflow=hidden;points=[[0,0.5],[1,0.5]];portConstraint=eastwest;rotatable=0;whiteSpace=wrap;html=1;" parent="UBOe81G5PL-eWpIbxyMx-8" vertex="1">
          <mxGeometry y="30" width="190" height="30" as="geometry" />
        </mxCell>
        <mxCell id="UBOe81G5PL-eWpIbxyMx-10" value="Current &amp;amp; History Product Information" style="text;html=1;align=center;verticalAlign=middle;whiteSpace=wrap;rounded=0;" parent="1" vertex="1">
          <mxGeometry x="440" y="110" width="210" height="30" as="geometry" />
        </mxCell>
        <mxCell id="UBOe81G5PL-eWpIbxyMx-11" value="crm_sales_details" style="swimlane;fontStyle=0;childLayout=stackLayout;horizontal=1;startSize=30;horizontalStack=0;resizeParent=1;resizeParentMax=0;resizeLast=0;collapsible=1;marginBottom=0;whiteSpace=wrap;html=1;fillColor=#dae8fc;strokeColor=#6c8ebf;rounded=1;fontSize=26;" parent="1" vertex="1">
          <mxGeometry x="110" y="220" width="220" height="90" as="geometry" />
        </mxCell>
        <mxCell id="UBOe81G5PL-eWpIbxyMx-12" value="&lt;span style=&quot;font-size: 20px;&quot;&gt;prd_key&lt;/span&gt;" style="text;strokeColor=none;fillColor=none;align=left;verticalAlign=middle;spacingLeft=4;spacingRight=4;overflow=hidden;points=[[0,0.5],[1,0.5]];portConstraint=eastwest;rotatable=0;whiteSpace=wrap;html=1;" parent="UBOe81G5PL-eWpIbxyMx-11" vertex="1">
          <mxGeometry y="30" width="220" height="30" as="geometry" />
        </mxCell>
        <mxCell id="UBOe81G5PL-eWpIbxyMx-14" value="&lt;span style=&quot;font-size: 20px;&quot;&gt;cst_id&lt;/span&gt;" style="text;strokeColor=none;fillColor=none;align=left;verticalAlign=middle;spacingLeft=4;spacingRight=4;overflow=hidden;points=[[0,0.5],[1,0.5]];portConstraint=eastwest;rotatable=0;whiteSpace=wrap;html=1;" parent="UBOe81G5PL-eWpIbxyMx-11" vertex="1">
          <mxGeometry y="60" width="220" height="30" as="geometry" />
        </mxCell>
        <mxCell id="UBOe81G5PL-eWpIbxyMx-13" value="Transactional Records about Sales &amp;amp; Orders" style="text;html=1;align=center;verticalAlign=middle;whiteSpace=wrap;rounded=0;" parent="1" vertex="1">
          <mxGeometry x="125" y="190" width="160" height="30" as="geometry" />
        </mxCell>
        <mxCell id="UBOe81G5PL-eWpIbxyMx-15" value="&lt;font style=&quot;font-size: 30px;&quot;&gt;Integration Model&lt;/font&gt;" style="text;html=1;align=center;verticalAlign=middle;whiteSpace=wrap;rounded=0;" parent="1" vertex="1">
          <mxGeometry x="-10" width="270" height="30" as="geometry" />
        </mxCell>
        <mxCell id="UBOe81G5PL-eWpIbxyMx-16" value="(how to tables are related)" style="text;html=1;align=center;verticalAlign=middle;whiteSpace=wrap;rounded=0;" parent="1" vertex="1">
          <mxGeometry x="240" y="5" width="150" height="20" as="geometry" />
        </mxCell>
        <mxCell id="UBOe81G5PL-eWpIbxyMx-17" style="edgeStyle=orthogonalEdgeStyle;rounded=0;orthogonalLoop=1;jettySize=auto;html=1;" parent="1" source="UBOe81G5PL-eWpIbxyMx-14" target="UBOe81G5PL-eWpIbxyMx-2" edge="1">
          <mxGeometry relative="1" as="geometry" />
        </mxCell>
        <mxCell id="UBOe81G5PL-eWpIbxyMx-18" style="edgeStyle=orthogonalEdgeStyle;rounded=0;orthogonalLoop=1;jettySize=auto;html=1;" parent="1" source="UBOe81G5PL-eWpIbxyMx-12" target="UBOe81G5PL-eWpIbxyMx-9" edge="1">
          <mxGeometry relative="1" as="geometry" />
        </mxCell>
        <mxCell id="UBOe81G5PL-eWpIbxyMx-19" value="erp_cust_az12" style="swimlane;fontStyle=0;childLayout=stackLayout;horizontal=1;startSize=30;horizontalStack=0;resizeParent=1;resizeParentMax=0;resizeLast=0;collapsible=1;marginBottom=0;whiteSpace=wrap;html=1;fillColor=#fff2cc;strokeColor=#d6b656;rounded=1;fontSize=26;" parent="1" vertex="1">
          <mxGeometry x="935" y="370" width="200" height="60" as="geometry" />
        </mxCell>
        <mxCell id="UBOe81G5PL-eWpIbxyMx-20" value="&lt;span style=&quot;font-size: 20px;&quot;&gt;cid&lt;/span&gt;" style="text;strokeColor=none;fillColor=none;align=left;verticalAlign=middle;spacingLeft=4;spacingRight=4;overflow=hidden;points=[[0,0.5],[1,0.5]];portConstraint=eastwest;rotatable=0;whiteSpace=wrap;html=1;" parent="UBOe81G5PL-eWpIbxyMx-19" vertex="1">
          <mxGeometry y="30" width="200" height="30" as="geometry" />
        </mxCell>
        <mxCell id="UBOe81G5PL-eWpIbxyMx-21" value="Extra Customer infromation (Birthdate)" style="text;html=1;align=center;verticalAlign=middle;whiteSpace=wrap;rounded=0;" parent="1" vertex="1">
          <mxGeometry x="930" y="340" width="210" height="30" as="geometry" />
        </mxCell>
        <mxCell id="UBOe81G5PL-eWpIbxyMx-24" value="erp_loc_a101" style="swimlane;fontStyle=0;childLayout=stackLayout;horizontal=1;startSize=30;horizontalStack=0;resizeParent=1;resizeParentMax=0;resizeLast=0;collapsible=1;marginBottom=0;whiteSpace=wrap;html=1;fillColor=#fff2cc;strokeColor=#d6b656;rounded=1;fontSize=26;" parent="1" vertex="1">
          <mxGeometry x="935" y="540" width="200" height="60" as="geometry" />
        </mxCell>
        <mxCell id="UBOe81G5PL-eWpIbxyMx-25" value="&lt;span style=&quot;font-size: 20px;&quot;&gt;cid&lt;/span&gt;" style="text;strokeColor=none;fillColor=none;align=left;verticalAlign=middle;spacingLeft=4;spacingRight=4;overflow=hidden;points=[[0,0.5],[1,0.5]];portConstraint=eastwest;rotatable=0;whiteSpace=wrap;html=1;" parent="UBOe81G5PL-eWpIbxyMx-24" vertex="1">
          <mxGeometry y="30" width="200" height="30" as="geometry" />
        </mxCell>
        <mxCell id="UBOe81G5PL-eWpIbxyMx-26" value="Location of Customer" style="text;html=1;align=center;verticalAlign=middle;whiteSpace=wrap;rounded=0;" parent="1" vertex="1">
          <mxGeometry x="965" y="510" width="130" height="30" as="geometry" />
        </mxCell>
        <mxCell id="UBOe81G5PL-eWpIbxyMx-31" value="erp_px_cat_g1v2" style="swimlane;fontStyle=0;childLayout=stackLayout;horizontal=1;startSize=30;horizontalStack=0;resizeParent=1;resizeParentMax=0;resizeLast=0;collapsible=1;marginBottom=0;whiteSpace=wrap;html=1;fillColor=#fff2cc;strokeColor=#d6b656;rounded=1;fontSize=26;" parent="1" vertex="1">
          <mxGeometry x="930" y="140" width="220" height="60" as="geometry" />
        </mxCell>
        <mxCell id="UBOe81G5PL-eWpIbxyMx-32" value="&lt;span style=&quot;font-size: 20px;&quot;&gt;id&lt;/span&gt;" style="text;strokeColor=none;fillColor=none;align=left;verticalAlign=middle;spacingLeft=4;spacingRight=4;overflow=hidden;points=[[0,0.5],[1,0.5]];portConstraint=eastwest;rotatable=0;whiteSpace=wrap;html=1;" parent="UBOe81G5PL-eWpIbxyMx-31" vertex="1">
          <mxGeometry y="30" width="220" height="30" as="geometry" />
        </mxCell>
        <mxCell id="UBOe81G5PL-eWpIbxyMx-33" value="Product Categories" style="text;html=1;align=center;verticalAlign=middle;whiteSpace=wrap;rounded=0;" parent="1" vertex="1">
          <mxGeometry x="940" y="110" width="210" height="30" as="geometry" />
        </mxCell>
        <mxCell id="UBOe81G5PL-eWpIbxyMx-35" style="edgeStyle=orthogonalEdgeStyle;rounded=0;orthogonalLoop=1;jettySize=auto;html=1;" parent="1" source="UBOe81G5PL-eWpIbxyMx-32" target="UBOe81G5PL-eWpIbxyMx-9" edge="1">
          <mxGeometry relative="1" as="geometry" />
        </mxCell>
        <mxCell id="UBOe81G5PL-eWpIbxyMx-36" style="edgeStyle=orthogonalEdgeStyle;rounded=0;orthogonalLoop=1;jettySize=auto;html=1;exitX=0;exitY=0.5;exitDx=0;exitDy=0;entryX=1;entryY=0.5;entryDx=0;entryDy=0;" parent="1" source="UBOe81G5PL-eWpIbxyMx-20" target="UBOe81G5PL-eWpIbxyMx-22" edge="1">
          <mxGeometry relative="1" as="geometry" />
        </mxCell>
        <mxCell id="UBOe81G5PL-eWpIbxyMx-37" style="edgeStyle=orthogonalEdgeStyle;rounded=0;orthogonalLoop=1;jettySize=auto;html=1;entryX=1;entryY=0.5;entryDx=0;entryDy=0;" parent="1" source="UBOe81G5PL-eWpIbxyMx-25" target="UBOe81G5PL-eWpIbxyMx-22" edge="1">
          <mxGeometry relative="1" as="geometry" />
        </mxCell>
        <mxCell id="UBOe81G5PL-eWpIbxyMx-38" value="" style="rounded=1;whiteSpace=wrap;html=1;fillColor=none;dashed=1;" parent="1" vertex="1">
          <mxGeometry x="90" y="80" width="640" height="560" as="geometry" />
        </mxCell>
        <mxCell id="UBOe81G5PL-eWpIbxyMx-39" value="" style="rounded=1;whiteSpace=wrap;html=1;fillColor=none;dashed=1;" parent="1" vertex="1">
          <mxGeometry x="760" y="80" width="640" height="560" as="geometry" />
        </mxCell>
        <mxCell id="UBOe81G5PL-eWpIbxyMx-40" value="&lt;font style=&quot;font-size: 24px;&quot;&gt;&lt;b&gt;CRM&lt;/b&gt;&lt;/font&gt;" style="rounded=1;whiteSpace=wrap;html=1;fillColor=#dae8fc;strokeColor=#6c8ebf;" parent="1" vertex="1">
          <mxGeometry x="322" y="60" width="183" height="40" as="geometry" />
        </mxCell>
        <mxCell id="UBOe81G5PL-eWpIbxyMx-41" value="&lt;font style=&quot;font-size: 24px;&quot;&gt;&lt;b&gt;ERP&lt;/b&gt;&lt;/font&gt;" style="rounded=1;whiteSpace=wrap;html=1;fillColor=#fff2cc;strokeColor=#d6b656;" parent="1" vertex="1">
          <mxGeometry x="998.5" y="60" width="183" height="40" as="geometry" />
        </mxCell>
        <mxCell id="Slq8MJ4koFapeLmcRLG--7" value="&lt;font style=&quot;font-size: 20px;&quot;&gt;Product&lt;/font&gt;" style="text;html=1;strokeColor=#b85450;fillColor=#f8cecc;align=center;verticalAlign=middle;whiteSpace=wrap;overflow=hidden;" parent="1" vertex="1">
          <mxGeometry x="940" y="200" width="200" height="30" as="geometry" />
        </mxCell>
        <mxCell id="diG2n_XFmAsH_RIULWY9-1" value="&lt;font style=&quot;font-size: 20px;&quot;&gt;Product&lt;/font&gt;" style="text;html=1;strokeColor=#b85450;fillColor=#f8cecc;align=center;verticalAlign=middle;whiteSpace=wrap;overflow=hidden;" vertex="1" parent="1">
          <mxGeometry x="460" y="200" width="170" height="30" as="geometry" />
        </mxCell>
        <mxCell id="diG2n_XFmAsH_RIULWY9-2" value="&lt;font style=&quot;font-size: 20px;&quot;&gt;Customer&lt;/font&gt;" style="text;html=1;strokeColor=#82b366;fillColor=#d5e8d4;align=center;verticalAlign=middle;whiteSpace=wrap;overflow=hidden;" vertex="1" parent="1">
          <mxGeometry x="955" y="430" width="170" height="30" as="geometry" />
        </mxCell>
        <mxCell id="diG2n_XFmAsH_RIULWY9-3" value="&lt;font style=&quot;font-size: 20px;&quot;&gt;Customer&lt;/font&gt;" style="text;html=1;strokeColor=#82b366;fillColor=#d5e8d4;align=center;verticalAlign=middle;whiteSpace=wrap;overflow=hidden;" vertex="1" parent="1">
          <mxGeometry x="950" y="600" width="170" height="30" as="geometry" />
        </mxCell>
        <mxCell id="diG2n_XFmAsH_RIULWY9-4" value="&lt;font style=&quot;font-size: 20px;&quot;&gt;Customer&lt;/font&gt;" style="text;html=1;strokeColor=#82b366;fillColor=#d5e8d4;align=center;verticalAlign=middle;whiteSpace=wrap;overflow=hidden;" vertex="1" parent="1">
          <mxGeometry x="460" y="490" width="170" height="30" as="geometry" />
        </mxCell>
        <mxCell id="diG2n_XFmAsH_RIULWY9-5" value="&lt;span style=&quot;font-size: 20px;&quot;&gt;Sales&lt;/span&gt;" style="text;html=1;strokeColor=#9673a6;fillColor=#e1d5e7;align=center;verticalAlign=middle;whiteSpace=wrap;overflow=hidden;" vertex="1" parent="1">
          <mxGeometry x="120" y="310" width="200" height="30" as="geometry" />
        </mxCell>
      </root>
    </mxGraphModel>
  </diagram>
</mxfile>
